<mxfile host="app.diagrams.net" modified="2023-11-19T20:35:17.902Z" agent="Mozilla/5.0 (X11; Linux x86_64; rv:109.0) Gecko/20100101 Firefox/119.0" etag="8U_ehAUbt-zJVesea6VV" version="22.1.3" type="device">
  <diagram name="Страница — 1" id="w3hdrznDzZopQdLgSvyi">
    <mxGraphModel dx="1434" dy="790" grid="1" gridSize="10" guides="1" tooltips="1" connect="1" arrows="1" fold="1" page="1" pageScale="1" pageWidth="827" pageHeight="1169" math="0" shadow="0">
      <root>
        <mxCell id="0" />
        <mxCell id="1" parent="0" />
        <mxCell id="2wcQbtf9iYhFMX01wgPh-1" value="Гость" style="shape=umlActor;verticalLabelPosition=bottom;verticalAlign=top;html=1;outlineConnect=0;" vertex="1" parent="1">
          <mxGeometry x="40" y="60" width="30" height="60" as="geometry" />
        </mxCell>
        <mxCell id="2wcQbtf9iYhFMX01wgPh-2" value="Авторизация" style="ellipse;whiteSpace=wrap;html=1;fontSize=10;" vertex="1" parent="1">
          <mxGeometry x="120" y="40" width="100" height="50" as="geometry" />
        </mxCell>
        <mxCell id="2wcQbtf9iYhFMX01wgPh-3" value="&lt;div&gt;Просмотр&lt;/div&gt;&lt;div&gt;главной&lt;/div&gt;&lt;div&gt;страницы&lt;/div&gt;" style="ellipse;whiteSpace=wrap;html=1;fontSize=10;" vertex="1" parent="1">
          <mxGeometry x="120" y="100" width="100" height="50" as="geometry" />
        </mxCell>
        <mxCell id="2wcQbtf9iYhFMX01wgPh-4" value="" style="endArrow=none;html=1;rounded=0;entryX=0;entryY=0.5;entryDx=0;entryDy=0;" edge="1" parent="1" target="2wcQbtf9iYhFMX01wgPh-2">
          <mxGeometry width="50" height="50" relative="1" as="geometry">
            <mxPoint x="80" y="90" as="sourcePoint" />
            <mxPoint x="220" y="120" as="targetPoint" />
          </mxGeometry>
        </mxCell>
        <mxCell id="2wcQbtf9iYhFMX01wgPh-5" value="" style="endArrow=none;html=1;rounded=0;entryX=0;entryY=0.5;entryDx=0;entryDy=0;" edge="1" parent="1" target="2wcQbtf9iYhFMX01wgPh-3">
          <mxGeometry width="50" height="50" relative="1" as="geometry">
            <mxPoint x="80" y="90" as="sourcePoint" />
            <mxPoint x="130" y="75" as="targetPoint" />
          </mxGeometry>
        </mxCell>
        <mxCell id="QEGuC3CkVHZqsu7OCDyT-1" value="Пользователь" style="shape=umlActor;verticalLabelPosition=bottom;verticalAlign=top;html=1;outlineConnect=0;" vertex="1" parent="1">
          <mxGeometry x="40" y="300" width="30" height="60" as="geometry" />
        </mxCell>
        <mxCell id="QEGuC3CkVHZqsu7OCDyT-2" value="&lt;div&gt;Выход&lt;/div&gt;&lt;div&gt;из аккаунта&lt;/div&gt;" style="ellipse;whiteSpace=wrap;html=1;fontSize=10;" vertex="1" parent="1">
          <mxGeometry x="140" y="200" width="100" height="50" as="geometry" />
        </mxCell>
        <mxCell id="QEGuC3CkVHZqsu7OCDyT-3" value="&lt;div&gt;Просмотр&lt;/div&gt;&lt;div&gt;главной&lt;/div&gt;&lt;div&gt;страницы&lt;/div&gt;" style="ellipse;whiteSpace=wrap;html=1;fontSize=10;" vertex="1" parent="1">
          <mxGeometry x="140" y="270" width="100" height="50" as="geometry" />
        </mxCell>
        <mxCell id="QEGuC3CkVHZqsu7OCDyT-4" value="&lt;div&gt;Просмотр&lt;/div&gt;&lt;div&gt;записных книжек&lt;/div&gt;" style="ellipse;whiteSpace=wrap;html=1;fontSize=10;" vertex="1" parent="1">
          <mxGeometry x="140" y="340" width="100" height="50" as="geometry" />
        </mxCell>
        <mxCell id="QEGuC3CkVHZqsu7OCDyT-5" value="&lt;div&gt;Просмотр&lt;/div&gt;&lt;div&gt;списков дел&lt;/div&gt;" style="ellipse;whiteSpace=wrap;html=1;fontSize=10;" vertex="1" parent="1">
          <mxGeometry x="140" y="410" width="100" height="50" as="geometry" />
        </mxCell>
        <mxCell id="QEGuC3CkVHZqsu7OCDyT-6" style="edgeStyle=orthogonalEdgeStyle;rounded=0;orthogonalLoop=1;jettySize=auto;html=1;exitX=0;exitY=0.5;exitDx=0;exitDy=0;entryX=1;entryY=0.5;entryDx=0;entryDy=0;dashed=1;" edge="1" parent="1" source="QEGuC3CkVHZqsu7OCDyT-7" target="QEGuC3CkVHZqsu7OCDyT-4">
          <mxGeometry relative="1" as="geometry" />
        </mxCell>
        <mxCell id="QEGuC3CkVHZqsu7OCDyT-7" value="&lt;div&gt;Удаление&lt;br&gt;&lt;/div&gt;&lt;div&gt;записных книжек&lt;/div&gt;" style="ellipse;whiteSpace=wrap;html=1;fontSize=10;" vertex="1" parent="1">
          <mxGeometry x="310" y="340" width="100" height="50" as="geometry" />
        </mxCell>
        <mxCell id="QEGuC3CkVHZqsu7OCDyT-8" style="edgeStyle=orthogonalEdgeStyle;rounded=0;orthogonalLoop=1;jettySize=auto;html=1;exitX=0;exitY=0.5;exitDx=0;exitDy=0;entryX=1;entryY=0.5;entryDx=0;entryDy=0;dashed=1;" edge="1" parent="1" source="QEGuC3CkVHZqsu7OCDyT-9" target="QEGuC3CkVHZqsu7OCDyT-5">
          <mxGeometry relative="1" as="geometry" />
        </mxCell>
        <mxCell id="QEGuC3CkVHZqsu7OCDyT-9" value="&lt;div&gt;Удаление&lt;br&gt;&lt;/div&gt;&lt;div&gt;списков дел&lt;/div&gt;" style="ellipse;whiteSpace=wrap;html=1;fontSize=10;" vertex="1" parent="1">
          <mxGeometry x="310" y="410" width="100" height="50" as="geometry" />
        </mxCell>
        <mxCell id="QEGuC3CkVHZqsu7OCDyT-10" style="edgeStyle=orthogonalEdgeStyle;rounded=0;orthogonalLoop=1;jettySize=auto;html=1;exitX=0;exitY=0.5;exitDx=0;exitDy=0;entryX=1;entryY=0.5;entryDx=0;entryDy=0;dashed=1;" edge="1" parent="1" source="QEGuC3CkVHZqsu7OCDyT-11" target="QEGuC3CkVHZqsu7OCDyT-5">
          <mxGeometry relative="1" as="geometry" />
        </mxCell>
        <mxCell id="QEGuC3CkVHZqsu7OCDyT-11" value="&lt;div&gt;Отметка выполненных&lt;/div&gt;&lt;div&gt;задач&lt;/div&gt;" style="ellipse;whiteSpace=wrap;html=1;fontSize=10;" vertex="1" parent="1">
          <mxGeometry x="310" y="480" width="100" height="50" as="geometry" />
        </mxCell>
        <mxCell id="QEGuC3CkVHZqsu7OCDyT-12" value="" style="endArrow=none;html=1;rounded=0;entryX=0;entryY=0.5;entryDx=0;entryDy=0;" edge="1" parent="1" target="QEGuC3CkVHZqsu7OCDyT-2">
          <mxGeometry width="50" height="50" relative="1" as="geometry">
            <mxPoint x="80" y="330" as="sourcePoint" />
            <mxPoint x="220" y="330" as="targetPoint" />
          </mxGeometry>
        </mxCell>
        <mxCell id="QEGuC3CkVHZqsu7OCDyT-13" value="" style="endArrow=none;html=1;rounded=0;entryX=0;entryY=0.5;entryDx=0;entryDy=0;" edge="1" parent="1" target="QEGuC3CkVHZqsu7OCDyT-3">
          <mxGeometry width="50" height="50" relative="1" as="geometry">
            <mxPoint x="80" y="330" as="sourcePoint" />
            <mxPoint x="150" y="235" as="targetPoint" />
          </mxGeometry>
        </mxCell>
        <mxCell id="QEGuC3CkVHZqsu7OCDyT-14" value="" style="endArrow=none;html=1;rounded=0;entryX=0;entryY=0.5;entryDx=0;entryDy=0;" edge="1" parent="1" target="QEGuC3CkVHZqsu7OCDyT-4">
          <mxGeometry width="50" height="50" relative="1" as="geometry">
            <mxPoint x="80" y="330" as="sourcePoint" />
            <mxPoint x="150" y="305" as="targetPoint" />
          </mxGeometry>
        </mxCell>
        <mxCell id="QEGuC3CkVHZqsu7OCDyT-15" value="" style="endArrow=none;html=1;rounded=0;entryX=0;entryY=0.5;entryDx=0;entryDy=0;" edge="1" parent="1" target="QEGuC3CkVHZqsu7OCDyT-5">
          <mxGeometry width="50" height="50" relative="1" as="geometry">
            <mxPoint x="80" y="330" as="sourcePoint" />
            <mxPoint x="150" y="375" as="targetPoint" />
          </mxGeometry>
        </mxCell>
        <mxCell id="QEGuC3CkVHZqsu7OCDyT-16" value="&quot;extend&quot;" style="text;html=1;align=center;verticalAlign=middle;resizable=0;points=[];autosize=1;strokeColor=none;fillColor=none;" vertex="1" parent="1">
          <mxGeometry x="243" y="340" width="70" height="30" as="geometry" />
        </mxCell>
        <mxCell id="QEGuC3CkVHZqsu7OCDyT-17" value="&quot;extend&quot;" style="text;html=1;align=center;verticalAlign=middle;resizable=0;points=[];autosize=1;strokeColor=none;fillColor=none;" vertex="1" parent="1">
          <mxGeometry x="243" y="410" width="70" height="30" as="geometry" />
        </mxCell>
      </root>
    </mxGraphModel>
  </diagram>
</mxfile>
